<?xml version="1.0" standalone="no"?>
<!DOCTYPE svg PUBLIC "-//W3C//DTD SVG 20010904//EN"
 "http://www.w3.org/TR/2001/REC-SVG-20010904/DTD/svg10.dtd">
<svg version="1.0" xmlns="http://www.w3.org/2000/svg"
 width="897.000000pt" height="266.000000pt" viewBox="0 0 897.000000 266.000000"
 preserveAspectRatio="xMidYMid meet">

<g transform="translate(0.000000,266.000000) scale(0.100000,-0.100000)"
fill="#000000" stroke="none">
<path d="M2940 2620 c0 -13 7 -20 20 -20 13 0 20 7 20 20 0 13 -7 20 -20 20
-13 0 -20 -7 -20 -20z"/>
<path d="M2645 1407 c-133 -44 -208 -148 -189 -261 18 -111 90 -166 276 -212
171 -42 208 -66 208 -132 0 -63 -59 -102 -155 -102 -94 0 -168 47 -181 115
l-6 35 -85 0 -86 0 5 -49 c15 -150 174 -250 379 -239 176 10 286 95 304 234
14 103 -39 193 -138 233 -28 12 -107 36 -174 54 -149 41 -173 55 -173 101 0
19 3 42 6 51 11 29 65 48 132 48 76 -1 108 -19 137 -81 l19 -42 83 0 c95 0 94
-1 68 86 -18 60 -70 114 -140 145 -62 28 -226 37 -290 16z"/>
<path d="M6002 1338 l3 -63 78 -3 77 -3 0 66 0 65 -80 0 -81 0 3 -62z"/>
<path d="M6312 993 l3 -408 288 -3 287 -2 0 75 0 75 -200 0 -200 0 0 335 0
335 -90 0 -90 0 2 -407z"/>
<path d="M4133 1160 c-29 -17 -53 -35 -53 -40 0 -6 -7 -10 -15 -10 -11 0 -15
11 -15 35 l0 36 -72 -3 -73 -3 0 -295 0 -295 77 -3 76 -3 4 198 c3 168 6 203
21 231 25 45 78 68 127 53 61 -18 65 -32 68 -268 l4 -213 79 0 79 0 0 195 c0
226 7 256 65 281 44 18 96 10 122 -18 16 -18 19 -46 23 -237 l5 -216 78 -3 77
-3 0 229 c0 145 -4 242 -11 263 -45 133 -247 162 -357 52 l-25 -25 -23 30
c-53 67 -174 82 -261 32z"/>
<path d="M5205 1174 c-16 -8 -47 -29 -67 -45 l-38 -30 0 41 0 41 -72 -3 -73
-3 0 -295 0 -295 77 -3 77 -3 3 203 c3 192 4 205 26 235 42 60 125 64 166 9
19 -25 21 -44 24 -237 l4 -210 76 3 77 3 5 205 c6 231 11 249 75 270 44 14 99
-1 118 -33 8 -15 14 -91 17 -232 l5 -210 78 -3 77 -3 0 231 c0 241 -5 275 -48
324 -29 32 -93 56 -154 56 -66 0 -97 -11 -154 -57 l-42 -33 -15 24 c-38 57
-174 86 -242 50z"/>
<path d="M7165 1176 c-65 -21 -101 -43 -139 -87 -48 -57 -71 -127 -70 -219 0
-177 121 -301 294 -301 39 0 87 5 108 12 38 12 97 51 120 79 14 17 52 86 52
95 0 3 -32 5 -70 5 -53 0 -72 -4 -76 -15 -12 -29 -69 -55 -123 -55 -86 0 -133
38 -142 115 l-4 30 215 5 215 5 -4 59 c-8 140 -78 236 -195 271 -60 18 -127
18 -181 1z m154 -121 c28 -14 61 -68 61 -99 0 -14 -17 -16 -129 -16 -72 0
-132 4 -135 8 -10 16 33 91 61 106 36 19 106 20 142 1z"/>
<path d="M7915 1179 c-17 -5 -49 -24 -72 -44 l-42 -35 -3 37 -3 38 -72 3 -73
3 0 -301 0 -301 78 3 77 3 5 200 c3 110 9 207 14 215 35 59 88 81 148 61 59
-19 62 -34 68 -266 l5 -210 78 -3 77 -3 0 228 c-1 287 -11 321 -105 364 -43
20 -128 24 -180 8z"/>
<path d="M8459 1176 c-98 -26 -145 -88 -137 -182 7 -87 41 -112 211 -155 59
-15 119 -34 132 -43 27 -18 33 -53 15 -86 -14 -25 -79 -44 -124 -36 -43 8 -96
51 -96 77 0 17 -8 19 -80 19 l-80 0 6 -27 c19 -83 76 -139 163 -163 58 -15
176 -14 234 4 105 32 152 96 145 198 -7 95 -44 123 -215 164 -128 30 -153 43
-153 84 0 38 23 50 99 50 63 0 101 -21 101 -54 0 -8 7 -17 16 -20 22 -9 132
-7 137 2 11 16 -24 89 -57 119 -62 57 -205 80 -317 49z"/>
<path d="M3217 1173 c-11 -11 -8 -398 4 -452 22 -106 81 -152 196 -153 77 0
136 22 171 67 27 34 32 32 32 -15 l0 -40 75 0 75 0 0 300 0 301 -77 -3 -78 -3
-5 -195 c-3 -107 -11 -206 -17 -220 -20 -47 -51 -65 -109 -65 -100 0 -113 35
-114 303 l0 182 -73 0 c-41 0 -77 -3 -80 -7z"/>
<path d="M6005 1167 c-3 -7 -4 -140 -3 -297 l3 -285 78 -3 77 -3 0 301 0 300
-75 0 c-52 0 -77 -4 -80 -13z"/>
</g>
</svg>
